<html>
<head>
<meta http-equiv="Content-Type" content="text/html; charset=utf-8" />
<meta name="keywords" content="ffmpeg" />
<meta name="keywords" content="link" />
<link href="../style.css" type="text/css" rel="stylesheet" />
<title>YUV 関連の情報</title>
</head>
<body>
<!-- Pt engine Start -->
<script type="text/javascript">
    window._pt_lt = new Date().getTime();
    window._pt_sp_2 = [];
    _pt_sp_2.push('setAccount,52fcdfa3');
    var _protocol = (("https:" == document.location.protocol) ? " https://" : " http://");
    (function() {
        var atag = document.createElement('script'); atag.type = 'text/javascript'; atag.async = true;
        atag.src = _protocol + 'js.ptengine.jp/pta.js';
        var stag = document.createElement('script'); stag.type = 'text/javascript'; stag.async = true;
        stag.src = _protocol + 'js.ptengine.jp/pts.js';
        var s = document.getElementsByTagName('script')[0]; 
        s.parentNode.insertBefore(atag, s); s.parentNode.insertBefore(stag, s);
    })();
</script>
<!-- Pt engine End -->
<script async src="//pagead2.googlesyndication.com/pagead/js/adsbygoogle.js"></script>
<!-- adv -->
<ins class="adsbygoogle"
     style="display:inline-block;width:728px;height:90px"
     data-ad-client="ca-pub-8722759789158430"
     data-ad-slot="8544576304"></ins>
<script>
(adsbygoogle = window.adsbygoogle || []).push({});
</script>
<!-- [FC2 Analyzer] http://analyzer.fc2.com/  -->
<!-- Start Google Analytics -->
<script>
  (function(i,s,o,g,r,a,m){i['GoogleAnalyticsObject']=r;i[r]=i[r]||function(){
  (i[r].q=i[r].q||[]).push(arguments)},i[r].l=1*new Date();a=s.createElement(o),
  m=s.getElementsByTagName(o)[0];a.async=1;a.src=g;m.parentNode.insertBefore(a,m)
  })(window,document,'script','https://www.google-analytics.com/analytics.js','ga');

  ga('create', 'UA-49508988-1', 'auto');
  ga('send', 'pageview');

</script>
<!-- End Google Analytics -->
<noscript>
	<div align="right">
	<img src="http://analyzer5.fc2.com:8080/ana/icon.php?uid=45767&ref=&href=&wid=0&hei=0&&col=0" />
	<strong>
	<a href="http://diary.fc2.com/">日記</a>
	</strong>
	</div>
</noscript>
<!-- [FC2 Analyzer]  -->

<div class="index">
	<a href="../contact.html">連絡先</a>
	<a href="../">トップに戻る</a>
	<a href="./">最初に戻る</a>
</div>
<div align="right">
$Date: 2017-05-06 20:37:04 +0900 (2017/05/06 (土)) $<br>
$Revision: 1114 $<br>
</div>

<h2>AG-デスクトップレコーダー</h2>

<a href="http://www.gigafree.net/media/recording/agdesktoprecorder.html">
AG-デスクトップレコーダー
</a>
をダウンロードしてデスクトップの録画を行って AGDRec.wmv を作る。

<h2>ffmpeg</h2>

ffmpeg を使って YUV データにする (出力サイズ指定を行う)

<pre>
>ffmpeg.exe -i AGDRec.wmv -s 1360x768 out.yuv

ffmpeg version N-60937-gb5005de Copyright (c) 2000-2014 the FFmpeg developers
  built on Feb 26 2014 22:07:19 with gcc 4.8.2 (GCC)
  configuration: --enable-gpl --enable-version3 --disable-w32threads --enable-av
isynth --enable-bzlib --enable-fontconfig --enable-frei0r --enable-gnutls --enab
le-iconv --enable-libass --enable-libbluray --enable-libcaca --enable-libfreetyp
e --enable-libgsm --enable-libilbc --enable-libmodplug --enable-libmp3lame --ena
ble-libopencore-amrnb --enable-libopencore-amrwb --enable-libopenjpeg --enable-l
ibopus --enable-librtmp --enable-libschroedinger --enable-libsoxr --enable-libsp
eex --enable-libtheora --enable-libtwolame --enable-libvidstab --enable-libvo-aa
cenc --enable-libvo-amrwbenc --enable-libvorbis --enable-libvpx --enable-libwavp
ack --enable-libx264 --enable-libx265 --enable-libxavs --enable-libxvid --enable
-zlib
  libavutil      52. 66.100 / 52. 66.100
  libavcodec     55. 52.102 / 55. 52.102
  libavformat    55. 33.100 / 55. 33.100
  libavdevice    55. 10.100 / 55. 10.100
  libavfilter     4.  2.100 /  4.  2.100
  libswscale      2.  5.101 /  2.  5.101
  libswresample   0. 18.100 /  0. 18.100
  libpostproc    52.  3.100 / 52.  3.100
[wmv3 @ 0000000004097a20] Extra data: 8 bits left, value: 20
Guessed Channel Layout for  Input Stream #0.0 : stereo
Input #0, asf, from 'AGDRec.wmv':
  Metadata:
    WMFSDKNeeded    : 0.0.0.0000
    DeviceConformanceTemplate: MP@HL
    WMFSDKVersion   : 12.0.9600.16384
    IsVBR           : 1
    VBR Peak        : 2545892
    Buffer Average  : 1486
  Duration: 00:00:02.64, start: 0.000000, bitrate: 769 kb/s
    Stream #0:0(jpn): Audio: wmav2 (a[1][0][0] / 0x0161), 44100 Hz, stereo, fltp
, 160 kb/s
    Stream #0:1(jpn): Video: wmv3 (Main) (WMV3 / 0x33564D57), yuv420p, 1366x768,
 914 kb/s, 29.97 tbr, 1k tbn, 1k tbc
[wmv3 @ 0000000004097a20] Extra data: 8 bits left, value: 20
Output #0, rawvideo, to 'out.yuv':
  Metadata:
    WMFSDKNeeded    : 0.0.0.0000
    DeviceConformanceTemplate: MP@HL
    WMFSDKVersion   : 12.0.9600.16384
    IsVBR           : 1
    VBR Peak        : 2545892
    Buffer Average  : 1486
    encoder         : Lavf55.33.100
    Stream #0:0(jpn): Video: rawvideo (I420 / 0x30323449), yuv420p, 1360x768, q=
2-31, 200 kb/s, 90k tbn, 29.97 tbc
Stream mapping:
  Stream #0:1 -> #0:0 (wmv3 -> rawvideo)
Press [q] to stop, [?] for help
frame=   79 fps=0.0 q=0.0 Lsize=  120870kB time=00:00:02.63 bitrate=375637.1kbit
s/s dup=27 drop=0
video:120870kB audio:0kB subtitle:0 data:0 global headers:0kB muxing overhead 0.
000000%
</pre>

<a href="http://www.himco.jp/articles/pdf/FFmpegDoc.swf">まちがいだらけの FFFmpeg ドキュメンテーション</a>
<a href="http://ffmpeg.org/ffmpeg.html">ffmpeg Documentation</a>

<h2>YUV Player</h2>

<ol>
	<li>
	<a href="http://sourceforge.jp/projects/sfnet_raw-yuvplayer/">
	YUV Player
	</a>
	をダウンロードして変換した YUV ファイルを開く。
	</li>
	<li>
	開く際に Size メニューから Custom を選び、画面サイズを指定する。
	</li>
	<li>
	File メニューから Open を選びファイル名を指定する。
	</li>
	<li>
	File メニューから Go を選びフレーム番号を指定する。
	</li>
</ol>

<h2>yuv420p</h2>

Y 平面のデータがあって Cb 平面のデータ (縦横ともに半分) Cr 平面のデータ (縦横ともに半分) が続く

</body>
</html>

